<?xml version="1.0" encoding="utf-8"?>
<!-- Generator: Adobe Illustrator 15.1.0, SVG Export Plug-In . SVG Version: 6.00 Build 0)  -->
<!DOCTYPE svg PUBLIC "-//W3C//DTD SVG 1.1//EN" "http://www.w3.org/Graphics/SVG/1.1/DTD/svg11.dtd">
<svg version="1.1" xmlns="http://www.w3.org/2000/svg" xmlns:xlink="http://www.w3.org/1999/xlink" x="0px" y="0px"
	 width="595.28px" height="841.89px" viewBox="0 0 595.28 841.89" enable-background="new 0 0 595.28 841.89" xml:space="preserve">
<g id="Vectorielle">
	<path fill="none" stroke="#000000" stroke-width="2" stroke-miterlimit="10" d="M267,380.875c0,0,1.582,2.747,8.125,2.75
		c29.125,0.015,36.75-26.875,36.75-26.875s0.5,21.625,30.625,22.125"/>
	<path fill="none" stroke="#000000" stroke-width="2" stroke-miterlimit="10" d="M268.5,383.625c0,0-1.625,12.25-10.125,19.25"/>
	<path fill="none" stroke="#000000" stroke-width="2" stroke-miterlimit="10" d="M333.551,378.938c0,0,1.155,9,8.375,9.375"/>
	<path fill="none" stroke="#000000" stroke-width="2" stroke-miterlimit="10" d="M262.688,400.625c0,0,7.188,35.75,43.688,28.375
		s30.971-42.497,30.971-42.497"/>
	<polyline fill="none" stroke="#000000" stroke-width="2" stroke-miterlimit="10" points="243.125,363.5 363.375,335.25 318,328 
		314.875,318.75 265.125,330.875 266.125,341.125 242.125,359.75 	"/>
	<polyline fill="none" stroke="#000000" stroke-width="2" stroke-miterlimit="10" points="267,340.625 317.25,328.375 
		308.625,304.875 262.688,314.125 267,341.625 	"/>
	<path fill="none" stroke="#000000" stroke-width="2" stroke-miterlimit="10" d="M258.375,360.875L257.125,405l-1.375,2.75
		c0,0-4.25-2.625-10.25-2c-4.5,11.625,8.375,18,8.375,18s-3.125,16,7.375,20.375"/>
	<path fill="none" stroke="#000000" stroke-width="2" stroke-miterlimit="10" d="M335.125,342.625l15.5,66.875
		c0,0,5.375-2.625,8.75-4s-4.5,19.375-5.25,19.5s10.625,15.625-2.375,23"/>
	<path fill="none" stroke="#000000" stroke-width="2" stroke-miterlimit="10" d="M275.125,408.252l52.5-7.127
		c0,0-2.25,16.086-22.25,20.355S275.125,408.252,275.125,408.252z"/>
	<path fill="none" stroke="#000000" stroke-width="2" stroke-miterlimit="10" d="M248.625,452.75l35.75-20
		c0,0,39.625-5.875,42.25-6.125c3.75-0.25,22.5,22.25,22.5,22.25l-8.75,13"/>
	<polyline fill="none" stroke="#000000" stroke-width="2" stroke-miterlimit="10" points="249.667,459.834 283.5,451.167 
		284.667,463.334 277.167,494.667 342.5,486.834 329.5,456.167 326.667,441.667 337.645,446.834 335.125,459.834 	"/>
	<path fill="none" stroke="#000000" stroke-width="2" stroke-miterlimit="10" d="M272.75,454.594c2.75,2,10.57,2.112,10.57,2.112"/>
	<line fill="none" stroke="#000000" stroke-width="2" stroke-miterlimit="10" x1="287.375" y1="433.875" x2="288.75" y2="466.75"/>
	<line fill="none" stroke="#000000" stroke-width="2" stroke-miterlimit="10" x1="292.5" y1="433.875" x2="294.125" y2="464.625"/>
	<circle fill="none" stroke="#000000" stroke-width="2" stroke-miterlimit="10" cx="291.511" cy="468.771" r="3.449"/>
	<circle fill="none" stroke="#000000" stroke-width="2" stroke-miterlimit="10" cx="321.12" cy="464.625" r="3.385"/>
	<path fill="none" stroke="#000000" stroke-width="2" stroke-miterlimit="10" d="M296.625,431.243c0,0-2.875,12.28,9.25,11.1
		s7.875-13.341,7.875-13.341"/>
	<line fill="none" stroke="#000000" stroke-width="2" stroke-miterlimit="10" x1="316.75" y1="429.002" x2="319.151" y2="461.875"/>
	<line fill="none" stroke="#000000" stroke-width="2" stroke-miterlimit="10" x1="322.125" y1="427.875" x2="323.875" y2="461.24"/>
	
		<line fill="none" stroke="#000000" stroke-width="2" stroke-miterlimit="10" x1="284.667" y1="463.334" x2="288.062" y2="462.625"/>
	
		<line fill="none" stroke="#000000" stroke-width="2" stroke-miterlimit="10" x1="294.125" y1="461.875" x2="318.895" y2="458.355"/>
	<line fill="none" stroke="#000000" stroke-width="2" stroke-miterlimit="10" x1="323.637" y1="456.706" x2="329.5" y2="456.167"/>
	<circle fill="none" stroke="#000000" stroke-width="2" stroke-miterlimit="10" cx="277.394" cy="394.58" r="2.994"/>
	<circle fill="none" stroke="#000000" stroke-width="2" stroke-miterlimit="10" cx="325.709" cy="390.353" r="2.709"/>
	<path fill="none" stroke="#000000" stroke-width="2" stroke-miterlimit="10" d="M333.551,461.235l5.76,15.124
		C350.167,472.666,340.5,458.666,333.551,461.235z"/>
	<circle fill="none" stroke="#000000" stroke-width="2" stroke-miterlimit="10" cx="241.291" cy="458.407" r="8.375"/>
	<path fill="none" stroke="#000000" stroke-width="2" stroke-miterlimit="10" d="M286.364,494.667l-1.698,17h-2v18.166
		c-4.667,0.667-11.833,7.334-11.833,7.334h23.292c0,0-0.539-2.996,0.835-8.667s3.915-16.167,3.915-16.167l-2.547-0.166
		c0,0,8.394-18.668,5.867-20.501"/>
	<path fill="none" stroke="#000000" stroke-width="2" stroke-miterlimit="10" d="M296.083,512.667"/>
	
		<line fill="none" stroke="#000000" stroke-width="2" stroke-miterlimit="10" x1="296.328" y1="512.167" x2="284.667" y2="511.667"/>
	<polyline fill="none" stroke="#000000" stroke-width="2" stroke-miterlimit="10" points="311.667,491.666 320.167,511.667 
		317.735,514.416 325.5,538 346.333,537.167 333.551,530.333 335.125,507.5 332,508 329,488.452 	"/>
	<line fill="none" stroke="#000000" stroke-width="2" stroke-miterlimit="10" x1="321.12" y1="511.667" x2="332" y2="508"/>
	<path fill="none" stroke="#000000" stroke-width="2" stroke-miterlimit="10" d="M329,453.607"/>
	<polyline fill="none" stroke="#000000" stroke-width="2" stroke-miterlimit="10" points="244.546,466.126 256.333,535 251.5,535 
		239.833,466.782 	"/>
	<path fill="none" stroke="#000000" stroke-width="2" stroke-miterlimit="10" d="M243.167,449.595"/>
	<path fill="none" stroke="#000000" stroke-width="2" stroke-miterlimit="10" d="M248.625,387.989"/>
	<path fill="none" stroke="#000000" stroke-width="2" stroke-miterlimit="10" d="M244.546,383.97"/>
	<path fill="none" stroke="#000000" stroke-width="2" stroke-miterlimit="10" d="M237,450.657"/>
	<line fill="none" stroke="#000000" stroke-width="2" stroke-miterlimit="10" x1="329" y1="453.607" x2="336.332" y2="453.607"/>
	<polygon fill="none" stroke="#000000" stroke-width="2" stroke-miterlimit="10" points="225,399 227.5,410.75 238.625,408.252 
		235.5,396.25 	"/>
	<path fill="none" stroke="#000000" stroke-width="2" stroke-miterlimit="10" d="M213.125,398.5c0,0,9.375,1,17.5,0
		s18-10.511,18-10.511l-1.375-5.239c0,0-10.5,8.125-16.375,9.5s-17.75,1-17.75,1V398.5z"/>
	<polygon fill="none" stroke="#000000" stroke-width="2" stroke-miterlimit="10" points="213.125,393.25 217.771,392.988 
		207.75,358.75 204.875,359.875 	"/>
	<polygon fill="none" stroke="#000000" stroke-width="2" stroke-miterlimit="10" points="228.251,392.398 233,390.625 222.25,353 
		219.125,354 	"/>
	<polyline fill="none" stroke="#000000" stroke-width="2" stroke-miterlimit="10" points="247.25,382.75 237.75,349.625 
		235.625,350.75 244.546,383.97 	"/>
	<polyline fill="none" stroke="#000000" stroke-width="2" stroke-miterlimit="10" points="229.538,410.292 237,451.221 
		243.407,450.312 235.625,408.926 	"/>
</g>
<g id="Calque_3" display="none">
	<path display="inline" fill="#FFFFFF" stroke="#000000" stroke-miterlimit="10" d="M247.833,387.834L238.602,349l-3.102,2.833
		l8.314,32.299c-2.668,1.926-6.889,4.795-10.542,6.501L223.167,354l-3.333,1.5l8.093,36.815c-3.244,0.605-7.201,0.901-10.298,1.046
		L207.833,359h-3.5l9,40c0,0,8.314,0.478,13.792,0.435l2.116,11.065l10.833-2.333l-3.162-11.142
		C242.157,393.784,247.833,387.834,247.833,387.834z"/>
</g>
</svg>
